<svg xmlns="http://www.w3.org/2000/svg" xmlns:xlink="http://www.w3.org/1999/xlink" xmlns:lucid="lucid" width="680" height="731"><g transform="translate(0 0)" lucid:page-tab-id="J6hDG-eYiTgB"><path d="M20 20h160v120H20z" stroke="#000" stroke-width="2" fill="#fff"/><use xlink:href="#a" transform="matrix(1,0,0,1,20,20) translate(42.029999999999994 51.9)"/><use xlink:href="#b" transform="matrix(1,0,0,1,20,20) translate(36.05499999999999 73.5)"/><path d="M260 20h160v120H260z" stroke="#000" stroke-width="2" fill="#fff"/><use xlink:href="#c" transform="matrix(1,0,0,1,260,20) translate(62.529999999999994 51.9)"/><use xlink:href="#d" transform="matrix(1,0,0,1,260,20) translate(51.555 73.5)"/><path d="M100 141v540.76" fill="none"/><path d="M100 141v10m0 10.03v20.03m0 10v20.04m0 10v20.04m0 10.02v20.02m0 10.02v20.03m0 10v20.04m0 10v20.04m0 10.03v20.02m0 10.02v20.03m0 10v20.04m0 10v20.04m0 10.02v20.02m0 10.02v20.03m0 10v20.04m0 10.02v20.03m0 10v20.04m0 10v20.04m0 10v10.02" stroke="#000" stroke-width="2" fill="none"/><path d="M101 141h-2v-1h2z"/><path d="M100 696.76l-4.64-14.26h9.28z" stroke="#000" stroke-width="2"/><path d="M340 141v540.76" fill="none"/><path d="M340 141v10m0 10.03v20.03m0 10v20.04m0 10v20.04m0 10.02v20.02m0 10.02v20.03m0 10v20.04m0 10v20.04m0 10.03v20.02m0 10.02v20.03m0 10v20.04m0 10v20.04m0 10.02v20.02m0 10.02v20.03m0 10v20.04m0 10.02v20.03m0 10v20.04m0 10v20.04m0 10v10.02" stroke="#000" stroke-width="2" fill="none"/><path d="M341 141h-2v-1h2z"/><path d="M340 696.76l-4.64-14.26h9.28z" stroke="#000" stroke-width="2"/><path d="M80 180h40v120H80zM320 180h40v480h-40z" stroke="#000" stroke-width="2" fill="#fff"/><path d="M121 189.12h179.76" stroke="#000" stroke-width="2" fill="none"/><path d="M121 190.12h-1v-2h1zM315.76 189.12l-14.26 4.64v-9.27z"/><path d="M319 189.12l-18.5 6v-12zm-16.5 3.26l10.03-3.26-10.03-3.26z"/><use xlink:href="#e" transform="matrix(1,0,0,1,153.57499999999996,163.5228129879149) translate(0 14.4)"/><use xlink:href="#f" transform="matrix(1,0,0,1,153.57499999999996,163.5228129879149) translate(34 14.4)"/><path d="M500 20h160v120H500z" stroke="#000" stroke-width="2" fill="#fff"/><use xlink:href="#g" transform="matrix(1,0,0,1,500,20) translate(41.07999999999999 51.9)"/><use xlink:href="#b" transform="matrix(1,0,0,1,500,20) translate(36.05499999999999 73.5)"/><path d="M581 141v279.5h-1v261.26" fill="none"/><path d="M581 141v10.03m0 10.04v20.06m0 10.03v20.07m0 10.03v20.07m0 10.03v20.06m0 10.04v20.06m0 10.04v20.06m0 10.03v20.07m0 10.03v20.07m0 10.03v18.65h-1v.4m0 10.05V451m0 10.05v20.06m0 10.04v20.07m0 10.04v20.07m0 10.04v20.06m0 10.04v20.06m0 10.04v20.06m0 10.03v20.07m0 10.03v10.03" stroke="#000" stroke-width="2" fill="none"/><path d="M582 141h-2v-1h2z"/><path d="M580 696.76l-4.64-14.26h9.28z" stroke="#000" stroke-width="2"/><path d="M560 180h40v420h-40z" stroke="#000" stroke-width="2" fill="#fff"/><path d="M560 218.46H379.24" stroke="#000" stroke-width="2" fill="none"/><path/><path d="M378.5 223.1l-14.26-4.64 14.26-4.64z"/><path d="M379.5 224.47l-18.5-6 18.5-6.03zm-12.03-6l10.03 3.25v-6.52z"/><use xlink:href="#h" transform="matrix(1,0,0,1,422.52500000000003,222.45614632124824) translate(0 14.4)"/><path d="M361 575.8h179.76" fill="none"/><path d="M361 575.8h10m9.97 0h19.98m9.98 0h19.98m10 0h19.97m10 0h19.96m10 0h19.96m9.98 0h9.98" stroke="#000" stroke-width="2" fill="none"/><path d="M361 576.8h-1v-2h1zM555.76 575.8l-14.26 4.62v-9.27z"/><path d="M559 575.8l-18.5 6v-12.02zm-16.5 3.25l10.03-3.26-10.03-3.27z"/><use xlink:href="#i" transform="matrix(1,0,0,1,415.025,550.1894796545816) translate(0 14.4)"/><path d="M80 340h40v120H80z" stroke="#000" stroke-width="2" fill="#fff"/><path d="M121 345.12h179.76" stroke="#000" stroke-width="2" fill="none"/><path d="M121 346.12h-1v-2h1zM315.76 345.12l-14.26 4.64v-9.27z"/><path d="M319 345.12l-18.5 6v-12zm-16.5 3.26l10.03-3.26-10.03-3.26z"/><g><use xlink:href="#e" transform="matrix(1,0,0,1,175.5,319.52281298791485) translate(0 14.4)"/><use xlink:href="#j" transform="matrix(1,0,0,1,175.5,319.52281298791485) translate(34 14.4)"/></g><defs><path d="M160-131c35 5 61 23 61 61C221 17 115-2 30 0v-248c76 3 177-17 177 60 0 33-19 50-47 57zm-97-11c50-1 110 9 110-42 0-47-63-36-110-37v79zm0 115c55-2 124 14 124-45 0-56-70-42-124-44v89" id="k"/><path d="M141-36C126-15 110 5 73 4 37 3 15-17 15-53c-1-64 63-63 125-63 3-35-9-54-41-54-24 1-41 7-42 31l-33-3c5-37 33-52 76-52 45 0 72 20 72 64v82c-1 20 7 32 28 27v20c-31 9-61-2-59-35zM48-53c0 20 12 33 32 33 41-3 63-29 60-74-43 2-92-5-92 41" id="l"/><path d="M96-169c-40 0-48 33-48 73s9 75 48 75c24 0 41-14 43-38l32 2c-6 37-31 61-74 61-59 0-76-41-82-99-10-93 101-131 147-64 4 7 5 14 7 22l-32 3c-4-21-16-35-41-35" id="m"/><path d="M143 0L79-87 56-68V0H24v-261h32v163l83-92h37l-77 82L181 0h-38" id="n"/><path d="M16-82v-28h88v28H16" id="o"/><path d="M100-194c63 0 86 42 84 106H49c0 40 14 67 53 68 26 1 43-12 49-29l28 8c-11 28-37 45-77 45C44 4 14-33 15-96c1-61 26-98 85-98zm52 81c6-60-76-77-97-28-3 7-6 17-6 28h103" id="p"/><path d="M117-194c89-4 53 116 60 194h-32v-121c0-31-8-49-39-48C34-167 62-67 57 0H25l-1-190h30c1 10-1 24 2 32 11-22 29-35 61-36" id="q"/><path d="M85-194c31 0 48 13 60 33l-1-100h32l1 261h-30c-2-10 0-23-3-31C134-8 116 4 85 4 32 4 16-35 15-94c0-66 23-100 70-100zm9 24c-40 0-46 34-46 75 0 40 6 74 45 74 42 0 51-32 51-76 0-42-9-74-50-73" id="r"/><g id="a"><use transform="matrix(0.05,0,0,0.05,0,0)" xlink:href="#k"/><use transform="matrix(0.05,0,0,0.05,12,0)" xlink:href="#l"/><use transform="matrix(0.05,0,0,0.05,22,0)" xlink:href="#m"/><use transform="matrix(0.05,0,0,0.05,31,0)" xlink:href="#n"/><use transform="matrix(0.05,0,0,0.05,40,0)" xlink:href="#o"/><use transform="matrix(0.05,0,0,0.05,45.95,0)" xlink:href="#p"/><use transform="matrix(0.05,0,0,0.05,55.95,0)" xlink:href="#q"/><use transform="matrix(0.05,0,0,0.05,65.95,0)" xlink:href="#r"/><path d="M-.9 1.25h77.75v1.32H-.9z"/></g><path d="M108 0H70L1-190h34L89-25l56-165h34" id="s"/><path d="M24 0v-261h32V0H24" id="t"/><path d="M100-194c62-1 85 37 85 99 1 63-27 99-86 99S16-35 15-95c0-66 28-99 85-99zM99-20c44 1 53-31 53-75 0-43-8-75-51-75s-53 32-53 75 10 74 51 75" id="u"/><path d="M115-194c55 1 70 41 70 98S169 2 115 4C84 4 66-9 55-30l1 105H24l-1-265h31l2 30c10-21 28-34 59-34zm-8 174c40 0 45-34 45-75s-6-73-45-74c-42 0-51 32-51 76 0 43 10 73 51 73" id="v"/><path d="M114-163C36-179 61-72 57 0H25l-1-190h30c1 12-1 29 2 39 6-27 23-49 58-41v29" id="w"/><path d="M135-143c-3-34-86-38-87 0 15 53 115 12 119 90S17 21 10-45l28-5c4 36 97 45 98 0-10-56-113-15-118-90-4-57 82-63 122-42 12 7 21 19 24 35" id="x"/><g id="b"><use transform="matrix(0.05,0,0,0.05,0,0)" xlink:href="#r"/><use transform="matrix(0.05,0,0,0.05,10,0)" xlink:href="#p"/><use transform="matrix(0.05,0,0,0.05,20,0)" xlink:href="#s"/><use transform="matrix(0.05,0,0,0.05,29,0)" xlink:href="#p"/><use transform="matrix(0.05,0,0,0.05,39,0)" xlink:href="#t"/><use transform="matrix(0.05,0,0,0.05,42.95,0)" xlink:href="#u"/><use transform="matrix(0.05,0,0,0.05,52.95,0)" xlink:href="#v"/><use transform="matrix(0.05,0,0,0.05,62.95,0)" xlink:href="#p"/><use transform="matrix(0.05,0,0,0.05,72.95,0)" xlink:href="#w"/><use transform="matrix(0.05,0,0,0.05,78.9,0)" xlink:href="#x"/><path d="M-.9 1.25h89.7v1.32H-.9z"/></g><path d="M177-190C167-65 218 103 67 71c-23-6-38-20-44-43l32-5c15 47 100 32 89-28v-30C133-14 115 1 83 1 29 1 15-40 15-95c0-56 16-97 71-98 29-1 48 16 59 35 1-10 0-23 2-32h30zM94-22c36 0 50-32 50-73 0-42-14-75-50-75-39 0-46 34-46 75s6 73 46 73" id="y"/><path d="M210-169c-67 3-38 105-44 169h-31v-121c0-29-5-50-35-48C34-165 62-65 56 0H25l-1-190h30c1 10-1 24 2 32 10-44 99-50 107 0 11-21 27-35 58-36 85-2 47 119 55 194h-31v-121c0-29-5-49-35-48" id="z"/><g id="c"><use transform="matrix(0.05,0,0,0.05,0,0)" xlink:href="#y"/><use transform="matrix(0.05,0,0,0.05,10,0)" xlink:href="#u"/><use transform="matrix(0.05,0,0,0.05,20,0)" xlink:href="#z"/><path d="M-.9 1.25h36.75v1.32H-.9z"/></g><path d="M24-231v-30h32v30H24zM24 0v-190h32V0H24" id="A"/><g id="d"><use transform="matrix(0.05,0,0,0.05,0,0)" xlink:href="#x"/><use transform="matrix(0.05,0,0,0.05,9,0)" xlink:href="#p"/><use transform="matrix(0.05,0,0,0.05,19,0)" xlink:href="#w"/><use transform="matrix(0.05,0,0,0.05,24.95,0)" xlink:href="#s"/><use transform="matrix(0.05,0,0,0.05,33.95,0)" xlink:href="#A"/><use transform="matrix(0.05,0,0,0.05,37.900000000000006,0)" xlink:href="#m"/><use transform="matrix(0.05,0,0,0.05,46.900000000000006,0)" xlink:href="#p"/><path d="M-.9 1.25h58.7v1.32H-.9z"/></g><path d="M205 0l-28-72H64L36 0H1l101-248h38L239 0h-34zm-38-99l-47-123c-12 45-31 82-46 123h93" id="B"/><path d="M30-248c87 1 191-15 191 75 0 78-77 80-158 76V0H30v-248zm33 125c57 0 124 11 124-50 0-59-68-47-124-48v98" id="C"/><path d="M33 0v-248h34V0H33" id="D"/><g id="e"><use transform="matrix(0.05,0,0,0.05,0,0)" xlink:href="#B"/><use transform="matrix(0.05,0,0,0.05,12,0)" xlink:href="#C"/><use transform="matrix(0.05,0,0,0.05,24,0)" xlink:href="#D"/></g><path d="M101-234c-31-9-42 10-38 44h38v23H63V0H32v-167H5v-23h27c-7-52 17-82 69-68v24" id="E"/><path d="M59-47c-2 24 18 29 38 22v24C64 9 27 4 27-40v-127H5v-23h24l9-43h21v43h35v23H59v120" id="F"/><g id="f"><use transform="matrix(0.05,0,0,0.05,0,0)" xlink:href="#x"/><use transform="matrix(0.05,0,0,0.05,9,0)" xlink:href="#v"/><use transform="matrix(0.05,0,0,0.05,19,0)" xlink:href="#p"/><use transform="matrix(0.05,0,0,0.05,29,0)" xlink:href="#m"/><use transform="matrix(0.05,0,0,0.05,38,0)" xlink:href="#A"/><use transform="matrix(0.05,0,0,0.05,41.95,0)" xlink:href="#E"/><use transform="matrix(0.05,0,0,0.05,46.95,0)" xlink:href="#A"/><use transform="matrix(0.05,0,0,0.05,50.900000000000006,0)" xlink:href="#m"/><use transform="matrix(0.05,0,0,0.05,59.900000000000006,0)" xlink:href="#l"/><use transform="matrix(0.05,0,0,0.05,69.9,0)" xlink:href="#F"/><use transform="matrix(0.05,0,0,0.05,74.9,0)" xlink:href="#A"/><use transform="matrix(0.05,0,0,0.05,78.85000000000001,0)" xlink:href="#u"/><use transform="matrix(0.05,0,0,0.05,88.85000000000001,0)" xlink:href="#q"/></g><path d="M63-220v92h138v28H63V0H30v-248h175v28H63" id="G"/><g id="g"><use transform="matrix(0.05,0,0,0.05,0,0)" xlink:href="#G"/><use transform="matrix(0.05,0,0,0.05,10.950000000000001,0)" xlink:href="#w"/><use transform="matrix(0.05,0,0,0.05,16.900000000000002,0)" xlink:href="#u"/><use transform="matrix(0.05,0,0,0.05,26.900000000000002,0)" xlink:href="#q"/><use transform="matrix(0.05,0,0,0.05,36.900000000000006,0)" xlink:href="#F"/><use transform="matrix(0.05,0,0,0.05,41.900000000000006,0)" xlink:href="#o"/><use transform="matrix(0.05,0,0,0.05,47.85000000000001,0)" xlink:href="#p"/><use transform="matrix(0.05,0,0,0.05,57.85,0)" xlink:href="#q"/><use transform="matrix(0.05,0,0,0.05,67.85000000000001,0)" xlink:href="#r"/><path d="M-.9 1.25h79.65v1.32H-.9z"/></g><path d="M233-177c-1 41-23 64-60 70L243 0h-38l-65-103H63V0H30v-248c88 3 205-21 203 71zM63-129c60-2 137 13 137-47 0-61-80-42-137-45v92" id="H"/><path d="M145-31C134-9 116 4 85 4 32 4 16-35 15-94c0-59 17-99 70-100 32-1 48 14 60 33 0-11-1-24 2-32h30l-1 268h-32zM93-21c41 0 51-33 51-76s-8-73-50-73c-40 0-46 35-46 75s5 74 45 74" id="I"/><path d="M84 4C-5 8 30-112 23-190h32v120c0 31 7 50 39 49 72-2 45-101 50-169h31l1 190h-30c-1-10 1-25-2-33-11 22-28 36-60 37" id="J"/><g id="h"><use transform="matrix(0.05,0,0,0.05,0,0)" xlink:href="#H"/><use transform="matrix(0.05,0,0,0.05,12.950000000000001,0)" xlink:href="#p"/><use transform="matrix(0.05,0,0,0.05,22.950000000000003,0)" xlink:href="#I"/><use transform="matrix(0.05,0,0,0.05,32.95,0)" xlink:href="#J"/><use transform="matrix(0.05,0,0,0.05,42.95,0)" xlink:href="#p"/><use transform="matrix(0.05,0,0,0.05,52.95,0)" xlink:href="#x"/><use transform="matrix(0.05,0,0,0.05,61.95,0)" xlink:href="#F"/><use transform="matrix(0.05,0,0,0.05,66.95,0)" xlink:href="#x"/></g><g id="i"><use transform="matrix(0.05,0,0,0.05,0,0)" xlink:href="#H"/><use transform="matrix(0.05,0,0,0.05,12.950000000000001,0)" xlink:href="#p"/><use transform="matrix(0.05,0,0,0.05,22.950000000000003,0)" xlink:href="#x"/><use transform="matrix(0.05,0,0,0.05,31.950000000000003,0)" xlink:href="#v"/><use transform="matrix(0.05,0,0,0.05,41.95,0)" xlink:href="#u"/><use transform="matrix(0.05,0,0,0.05,51.95,0)" xlink:href="#q"/><use transform="matrix(0.05,0,0,0.05,61.95,0)" xlink:href="#x"/><use transform="matrix(0.05,0,0,0.05,70.95,0)" xlink:href="#p"/><use transform="matrix(0.05,0,0,0.05,80.95,0)" xlink:href="#x"/></g><g id="j"><use transform="matrix(0.05,0,0,0.05,0,0)" xlink:href="#J"/><use transform="matrix(0.05,0,0,0.05,10,0)" xlink:href="#v"/><use transform="matrix(0.05,0,0,0.05,20,0)" xlink:href="#r"/><use transform="matrix(0.05,0,0,0.05,30,0)" xlink:href="#l"/><use transform="matrix(0.05,0,0,0.05,40,0)" xlink:href="#F"/><use transform="matrix(0.05,0,0,0.05,45,0)" xlink:href="#p"/></g></defs></g></svg>